<svg width="55" height="54" viewBox="0 0 55 54" fill="none" xmlns="http://www.w3.org/2000/svg">
<path d="M27.5 54C42.6878 54 55 41.9117 55 27C55 12.0883 42.6878 0 27.5 0C12.3122 0 0 12.0883 0 27C0 41.9117 12.3122 54 27.5 54Z" fill="#0063EC"/>
<path d="M28.3571 6.74634V21.7152L41.2425 27.3691L28.3571 6.74634Z" fill="white" fill-opacity="0.602"/>
<path d="M28.3571 6.74634L15.4717 27.3691L28.3571 21.7152V6.74634Z" fill="white"/>
<path d="M28.3571 37.0676V47.2387L41.25 29.7234L28.3571 37.0676Z" fill="white" fill-opacity="0.602"/>
<path d="M28.3571 47.2387V37.0676L15.4717 29.7234L28.3571 47.2387Z" fill="white"/>
<path d="M28.3571 34.7134L41.2425 27.3692L28.3571 21.7153V34.7134Z" fill="white" fill-opacity="0.2"/>
<path d="M15.4717 27.3692L28.3571 34.7134V21.7153L15.4717 27.3692Z" fill="white" fill-opacity="0.602"/>
</svg>
