<svg width="154" height="30" viewBox="0 0 154 30" fill="none" xmlns="http://www.w3.org/2000/svg">
<path d="M27.5435 10.9534C27.055 7.39331 25.047 4.93135 21.688 3.52482C22.2605 3.2054 22.6305 3.04542 22.6305 3.04542C21.0125 2.44353 19.608 2.09295 18.392 1.9335C19.0315 1.42506 19.4585 1.23182 19.4585 1.23182C9.5825 -0.239117 4.7125 5.56123 4.4065 10.9614C2.4715 11.3199 1 13.0954 1 15.2385C1 17.3594 2.4415 19.1212 4.348 19.5046C4.566 24.4754 9.698 28.4543 15.9995 28.4543C22.302 28.4543 27.434 24.4754 27.652 19.5046C29.558 19.1207 31 17.3583 31 15.2385C31 13.078 29.5025 11.2903 27.5435 10.9534ZM4.4505 17.9671C3.2955 17.6503 2.439 16.5547 2.439 15.2385C2.439 13.9629 3.2455 12.8953 4.347 12.5427C4.3715 13.6841 4.656 14.7755 5.154 15.7813C4.81484 16.4675 4.57757 17.2047 4.4505 17.9671ZM22.274 18.9106C22.938 19.7849 23.327 20.806 23.327 21.9016C23.327 25.1127 20.046 27.7146 15.9995 27.7146C11.953 27.7146 8.6725 25.1127 8.6725 21.9016C8.6725 20.806 9.061 19.7849 9.726 18.9106C7.4475 17.4544 5.989 15.2253 5.989 12.7232C5.989 3.78248 15.9995 9.47828 15.9995 9.47828C15.9995 9.47828 26.0105 3.783 26.0105 12.7232C26.0105 15.2248 24.552 17.4544 22.274 18.9106ZM27.5495 17.9671C27.4222 17.2047 27.1851 16.4674 26.8465 15.7807C27.3445 14.7749 27.6285 13.6836 27.653 12.5421C28.7545 12.8953 29.5605 13.9624 29.5605 15.238C29.5605 16.5547 28.7045 17.6503 27.5495 17.9671Z" fill="#149BFD" stroke="#149BFD"/>
<path d="M17.0726 19.3746C17.3491 19.3746 17.5726 18.8894 17.5726 18.2885C17.5726 17.6903 17.3491 17.2014 17.0726 17.2014C16.7956 17.2014 16.5726 17.6903 16.5726 18.2885C16.5726 18.8894 16.7956 19.3746 17.0726 19.3746Z" fill="#149BFD" stroke="#149BFD"/>
<path d="M14.9266 19.3746C15.2031 19.3746 15.4266 18.8894 15.4266 18.2885C15.4266 17.6903 15.2031 17.2014 14.9266 17.2014C14.6496 17.2014 14.4266 17.6903 14.4266 18.2885C14.4266 18.8894 14.6496 19.3746 14.9266 19.3746Z" fill="#149BFD" stroke="#149BFD"/>
<path d="M20.3409 16.9691C21.3074 16.9691 22.0909 15.9053 22.0909 14.5932C22.0909 13.281 21.3074 12.2173 20.3409 12.2173C19.3744 12.2173 18.5909 13.281 18.5909 14.5932C18.5909 15.9053 19.3744 16.9691 20.3409 16.9691Z" fill="#149BFD" stroke="#149BFD"/>
<path d="M11.6591 16.9691C12.6256 16.9691 13.4091 15.9053 13.4091 14.5932C13.4091 13.281 12.6256 12.2173 11.6591 12.2173C10.6926 12.2173 9.90906 13.281 9.90906 14.5932C9.90906 15.9053 10.6926 16.9691 11.6591 16.9691Z" fill="#149BFD" stroke="#149BFD"/>
<path d="M15.999 21.8222C13.6545 21.8222 11.2695 21.1512 11.0765 21.3249C10.364 21.9658 12.5485 24.9885 15.999 25.0085C19.449 24.9901 21.635 21.9664 20.921 21.3249C20.728 21.1517 18.344 21.8227 15.999 21.8222Z" fill="#149BFD" stroke="#149BFD"/>
<path d="M40.1126 24V7.2H43.7606L49.1126 17.856L54.3926 7.2H58.0406V24H54.9686V12.408L50.2886 21.6H47.8646L43.1846 12.408V24H40.1126ZM65.9801 24.288C64.8281 24.288 63.7881 24.024 62.8601 23.496C61.9481 22.968 61.2201 22.24 60.6761 21.312C60.1481 20.368 59.8841 19.28 59.8841 18.048C59.8841 16.816 60.1561 15.736 60.7001 14.808C61.2441 13.864 61.9721 13.128 62.8841 12.6C63.8121 12.072 64.8521 11.808 66.0041 11.808C67.1401 11.808 68.1641 12.072 69.0761 12.6C70.0041 13.128 70.7321 13.864 71.2601 14.808C71.8041 15.736 72.0761 16.816 72.0761 18.048C72.0761 19.28 71.8041 20.368 71.2601 21.312C70.7321 22.24 70.0041 22.968 69.0761 23.496C68.1481 24.024 67.1161 24.288 65.9801 24.288ZM65.9801 21.624C66.7801 21.624 67.4761 21.328 68.0681 20.736C68.6601 20.128 68.9561 19.232 68.9561 18.048C68.9561 16.864 68.6601 15.976 68.0681 15.384C67.4761 14.776 66.7881 14.472 66.0041 14.472C65.1881 14.472 64.4841 14.776 63.8921 15.384C63.3161 15.976 63.0281 16.864 63.0281 18.048C63.0281 19.232 63.3161 20.128 63.8921 20.736C64.4841 21.328 65.1801 21.624 65.9801 21.624ZM73.8628 24V12.096H76.5748L76.8148 14.112C77.1828 13.408 77.7108 12.848 78.3988 12.432C79.1028 12.016 79.9268 11.808 80.8708 11.808C82.3428 11.808 83.4868 12.272 84.3028 13.2C85.1188 14.128 85.5268 15.488 85.5268 17.28V24H82.4548V17.568C82.4548 16.544 82.2468 15.76 81.8308 15.216C81.4148 14.672 80.7668 14.4 79.8868 14.4C79.0228 14.4 78.3108 14.704 77.7508 15.312C77.2068 15.92 76.9348 16.768 76.9348 17.856V24H73.8628ZM87.5044 24V6.72H90.5764V16.92L94.8004 12.096H98.4484L93.5764 17.52L99.2404 24H95.4004L90.5764 18.024V24H87.5044ZM104.985 24.288C103.785 24.288 102.721 24.032 101.793 23.52C100.865 23.008 100.137 22.288 99.6086 21.36C99.0806 20.432 98.8166 19.36 98.8166 18.144C98.8166 16.912 99.0726 15.816 99.5846 14.856C100.113 13.896 100.833 13.152 101.745 12.624C102.673 12.08 103.761 11.808 105.009 11.808C106.177 11.808 107.209 12.064 108.105 12.576C109.001 13.088 109.697 13.792 110.193 14.688C110.705 15.568 110.961 16.552 110.961 17.64C110.961 17.816 110.953 18 110.937 18.192C110.937 18.384 110.929 18.584 110.913 18.792H101.865C101.929 19.72 102.249 20.448 102.825 20.976C103.417 21.504 104.129 21.768 104.961 21.768C105.585 21.768 106.105 21.632 106.521 21.36C106.953 21.072 107.273 20.704 107.481 20.256H110.601C110.377 21.008 110.001 21.696 109.473 22.32C108.961 22.928 108.321 23.408 107.553 23.76C106.801 24.112 105.945 24.288 104.985 24.288ZM105.009 14.304C104.257 14.304 103.593 14.52 103.017 14.952C102.441 15.368 102.073 16.008 101.913 16.872H107.841C107.793 16.088 107.505 15.464 106.977 15C106.449 14.536 105.793 14.304 105.009 14.304ZM113.486 29.28L116.246 23.208H115.526L110.894 12.096H114.23L117.566 20.472L121.046 12.096H124.31L116.75 29.28H113.486ZM125.431 24V7.2H132.175C133.919 7.2 135.247 7.608 136.159 8.424C137.087 9.224 137.551 10.256 137.551 11.52C137.551 12.576 137.263 13.424 136.687 14.064C136.127 14.688 135.439 15.112 134.623 15.336C135.583 15.528 136.375 16.008 136.999 16.776C137.623 17.528 137.935 18.408 137.935 19.416C137.935 20.744 137.455 21.84 136.495 22.704C135.535 23.568 134.175 24 132.415 24H125.431ZM128.503 14.256H131.719C132.583 14.256 133.247 14.056 133.711 13.656C134.175 13.256 134.407 12.688 134.407 11.952C134.407 11.248 134.175 10.696 133.711 10.296C133.263 9.88 132.583 9.672 131.671 9.672H128.503V14.256ZM128.503 21.504H131.935C132.847 21.504 133.551 21.296 134.047 20.88C134.559 20.448 134.815 19.848 134.815 19.08C134.815 18.296 134.551 17.68 134.023 17.232C133.495 16.784 132.783 16.56 131.887 16.56H128.503V21.504ZM141.195 10.248C140.635 10.248 140.171 10.08 139.803 9.744C139.451 9.408 139.275 8.984 139.275 8.472C139.275 7.96 139.451 7.544 139.803 7.224C140.171 6.888 140.635 6.72 141.195 6.72C141.755 6.72 142.211 6.888 142.563 7.224C142.931 7.544 143.115 7.96 143.115 8.472C143.115 8.984 142.931 9.408 142.563 9.744C142.211 10.08 141.755 10.248 141.195 10.248ZM139.659 24V12.096H142.731V24H139.659ZM150.282 24C149.034 24 148.034 23.696 147.282 23.088C146.53 22.48 146.154 21.4 146.154 19.848V14.664H144.114V12.096H146.154L146.514 8.904H149.226V12.096H152.442V14.664H149.226V19.872C149.226 20.448 149.346 20.848 149.586 21.072C149.842 21.28 150.274 21.384 150.882 21.384H152.37V24H150.282Z" fill="#0063EC"/>
</svg>
