<svg width="68" height="51" viewBox="0 0 68 51" fill="none" xmlns="http://www.w3.org/2000/svg">
<path d="M2.27809 39.9313C1.95809 39.9313 1.67276 39.862 1.42209 39.7233C1.17676 39.5793 0.98476 39.3846 0.846094 39.1393C0.707427 38.8886 0.638094 38.6033 0.638094 38.2833C0.638094 37.9686 0.707427 37.686 0.846094 37.4353C0.98476 37.1846 1.17676 36.99 1.42209 36.8513C1.67276 36.7073 1.95809 36.6353 2.27809 36.6353C2.59276 36.6353 2.87276 36.7073 3.11809 36.8513C3.36876 36.99 3.56343 37.1846 3.70209 37.4353C3.84076 37.686 3.91009 37.9686 3.91009 38.2833C3.91009 38.6033 3.84076 38.8886 3.70209 39.1393C3.56343 39.3846 3.36876 39.5793 3.11809 39.7233C2.87276 39.862 2.59276 39.9313 2.27809 39.9313ZM2.27809 39.6033C2.66209 39.6033 2.97143 39.4806 3.20609 39.2353C3.44076 38.99 3.55809 38.6726 3.55809 38.2833C3.55809 37.8993 3.44076 37.5846 3.20609 37.3393C2.97143 37.094 2.66209 36.9713 2.27809 36.9713C1.88876 36.9713 1.57676 37.094 1.34209 37.3393C1.10743 37.5846 0.990094 37.8993 0.990094 38.2833C0.990094 38.6726 1.10743 38.99 1.34209 39.2353C1.57676 39.4806 1.88876 39.6033 2.27809 39.6033ZM1.61409 39.1233V37.4113H2.41409C2.59009 37.4113 2.73143 37.4593 2.83809 37.5553C2.94476 37.6513 2.99809 37.782 2.99809 37.9473C2.99809 38.2086 2.87276 38.3766 2.62209 38.4513L3.07009 39.1233H2.57409L2.18209 38.4753H2.03809V39.1233H1.61409ZM2.03809 38.1553H2.35809C2.41676 38.1553 2.46743 38.142 2.51009 38.1153C2.55276 38.0833 2.57409 38.0326 2.57409 37.9633C2.57409 37.8993 2.55276 37.854 2.51009 37.8273C2.46743 37.8006 2.41676 37.7873 2.35809 37.7873H2.03809V38.1553ZM6.87659 42.3313V36.7313H7.87659L9.77259 40.4593L11.6606 36.7313H12.6606V42.3313H11.8126V38.1953L10.1006 41.5313H9.44459L7.72459 38.2033V42.3313H6.87659ZM15.6225 42.4273C15.2438 42.4273 14.9025 42.342 14.5985 42.1713C14.2998 41.9953 14.0625 41.7526 13.8865 41.4433C13.7105 41.1286 13.6225 40.7633 13.6225 40.3473C13.6225 39.9313 13.7105 39.5686 13.8865 39.2593C14.0678 38.9446 14.3105 38.702 14.6145 38.5313C14.9185 38.3553 15.2571 38.2673 15.6305 38.2673C16.0091 38.2673 16.3478 38.3553 16.6465 38.5313C16.9505 38.702 17.1905 38.9446 17.3665 39.2593C17.5478 39.5686 17.6385 39.9313 17.6385 40.3473C17.6385 40.7633 17.5478 41.1286 17.3665 41.4433C17.1905 41.7526 16.9505 41.9953 16.6465 42.1713C16.3425 42.342 16.0011 42.4273 15.6225 42.4273ZM15.6225 41.6993C15.8251 41.6993 16.0118 41.6486 16.1825 41.5473C16.3585 41.446 16.4998 41.2966 16.6065 41.0993C16.7131 40.8966 16.7665 40.646 16.7665 40.3473C16.7665 40.0486 16.7131 39.8006 16.6065 39.6033C16.5051 39.4006 16.3665 39.2486 16.1905 39.1473C16.0198 39.046 15.8331 38.9953 15.6305 38.9953C15.4278 38.9953 15.2385 39.046 15.0625 39.1473C14.8918 39.2486 14.7531 39.4006 14.6465 39.6033C14.5398 39.8006 14.4865 40.0486 14.4865 40.3473C14.4865 40.646 14.5398 40.8966 14.6465 41.0993C14.7531 41.2966 14.8918 41.446 15.0625 41.5473C15.2331 41.6486 15.4198 41.6993 15.6225 41.6993ZM18.5555 42.3313V38.3633H19.3075L19.3715 39.0593C19.4942 38.814 19.6729 38.622 19.9075 38.4833C20.1475 38.3393 20.4222 38.2673 20.7315 38.2673C21.2115 38.2673 21.5875 38.4166 21.8595 38.7153C22.1369 39.014 22.2755 39.4593 22.2755 40.0513V42.3313H21.4355V40.1393C21.4355 39.3713 21.1209 38.9873 20.4915 38.9873C20.1769 38.9873 19.9155 39.0993 19.7075 39.3233C19.5049 39.5473 19.4035 39.8673 19.4035 40.2833V42.3313H18.5555ZM23.2743 42.3313V36.5713H24.1223V40.0033L25.6423 38.3633H26.6583L24.9703 40.1633L26.9063 42.3313H25.8343L24.1223 40.2993V42.3313H23.2743ZM29.1147 42.4273C28.7253 42.4273 28.3787 42.342 28.0747 42.1713C27.776 41.9953 27.5413 41.7526 27.3707 41.4433C27.2 41.134 27.1147 40.774 27.1147 40.3633C27.1147 39.9473 27.1973 39.582 27.3627 39.2673C27.5333 38.9526 27.768 38.7073 28.0667 38.5313C28.3707 38.3553 28.7227 38.2673 29.1227 38.2673C29.512 38.2673 29.8507 38.3553 30.1387 38.5313C30.4267 38.702 30.6507 38.9313 30.8107 39.2193C30.9707 39.5073 31.0507 39.8246 31.0507 40.1713C31.0507 40.2246 31.048 40.2833 31.0427 40.3473C31.0427 40.406 31.04 40.4726 31.0347 40.5473H27.9467C27.9733 40.9313 28.0987 41.2246 28.3227 41.4273C28.552 41.6246 28.816 41.7233 29.1147 41.7233C29.3547 41.7233 29.5547 41.67 29.7147 41.5633C29.88 41.4513 30.0027 41.302 30.0827 41.1153H30.9307C30.824 41.4886 30.6107 41.8006 30.2907 42.0513C29.976 42.302 29.584 42.4273 29.1147 42.4273ZM29.1147 38.9633C28.832 38.9633 28.5813 39.0486 28.3627 39.2193C28.144 39.3846 28.0107 39.6353 27.9627 39.9713H30.2027C30.1867 39.662 30.0773 39.4166 29.8747 39.2353C29.672 39.054 29.4187 38.9633 29.1147 38.9633ZM32.2148 44.0913L33.1668 42.0033H32.9348L31.3668 38.3633H32.2868L33.5028 41.2993L34.7748 38.3633H35.6708L33.1108 44.0913H32.2148ZM38.6 42.4273C38.2907 42.4273 38.016 42.366 37.776 42.2433C37.5414 42.1206 37.3547 41.9473 37.216 41.7233L37.128 42.3313H36.368V36.5713H37.216V38.9793C37.344 38.7926 37.52 38.6273 37.744 38.4833C37.968 38.3393 38.256 38.2673 38.608 38.2673C38.992 38.2673 39.3307 38.358 39.624 38.5393C39.9174 38.7206 40.1467 38.9686 40.312 39.2833C40.4827 39.598 40.568 39.9553 40.568 40.3553C40.568 40.7553 40.4827 41.1126 40.312 41.4273C40.1467 41.7366 39.9174 41.982 39.624 42.1633C39.3307 42.3393 38.9894 42.4273 38.6 42.4273ZM38.456 41.6913C38.8187 41.6913 39.1174 41.5686 39.352 41.3233C39.5867 41.0726 39.704 40.7473 39.704 40.3473C39.704 40.086 39.6507 39.854 39.544 39.6513C39.4374 39.4486 39.2907 39.2913 39.104 39.1793C38.9174 39.062 38.7014 39.0033 38.456 39.0033C38.0934 39.0033 37.7947 39.1286 37.56 39.3793C37.3307 39.63 37.216 39.9526 37.216 40.3473C37.216 40.7473 37.3307 41.0726 37.56 41.3233C37.7947 41.5686 38.0934 41.6913 38.456 41.6913ZM41.9652 37.6113C41.8052 37.6113 41.6719 37.5633 41.5652 37.4673C41.4639 37.366 41.4132 37.2406 41.4132 37.0913C41.4132 36.942 41.4639 36.8193 41.5652 36.7233C41.6719 36.622 41.8052 36.5713 41.9652 36.5713C42.1252 36.5713 42.2559 36.622 42.3572 36.7233C42.4639 36.8193 42.5172 36.942 42.5172 37.0913C42.5172 37.2406 42.4639 37.366 42.3572 37.4673C42.2559 37.5633 42.1252 37.6113 41.9652 37.6113ZM41.5412 42.3313V38.3633H42.3892V42.3313H41.5412ZM45.1727 42.3313C44.7833 42.3313 44.474 42.238 44.2447 42.0513C44.0153 41.8593 43.9007 41.5206 43.9007 41.0353V39.0753H43.2207V38.3633H43.9007L44.0047 37.3553H44.7487V38.3633H45.8687V39.0753H44.7487V41.0353C44.7487 41.254 44.794 41.406 44.8847 41.4913C44.9807 41.5713 45.1433 41.6113 45.3727 41.6113H45.8287V42.3313H45.1727ZM48.6787 42.3313V41.7233C49.0413 41.4353 49.388 41.1446 49.7187 40.8513C50.0493 40.558 50.3427 40.27 50.5987 39.9873C50.86 39.6993 51.0653 39.4193 51.2147 39.1473C51.364 38.87 51.4387 38.6033 51.4387 38.3473C51.4387 38.1766 51.4093 38.0166 51.3507 37.8673C51.292 37.7126 51.196 37.59 51.0627 37.4993C50.9293 37.4033 50.7507 37.3553 50.5267 37.3553C50.1907 37.3553 49.9373 37.462 49.7667 37.6753C49.6013 37.8886 49.5213 38.1446 49.5267 38.4433H48.7027C48.708 38.0486 48.7907 37.718 48.9507 37.4513C49.116 37.1846 49.3347 36.982 49.6067 36.8433C49.884 36.7046 50.196 36.6353 50.5427 36.6353C51.0707 36.6353 51.492 36.7846 51.8067 37.0833C52.1267 37.3766 52.2867 37.7873 52.2867 38.3153C52.2867 38.63 52.2093 38.942 52.0547 39.2513C51.9053 39.5606 51.708 39.8593 51.4627 40.1473C51.2227 40.43 50.964 40.6966 50.6867 40.9473C50.4093 41.198 50.1453 41.4246 49.8947 41.6273H52.4547V42.3313H48.6787ZM55.5463 42.4273C55.0396 42.4273 54.6023 42.3073 54.2343 42.0673C53.8716 41.822 53.5916 41.4833 53.3943 41.0513C53.2023 40.614 53.1063 40.1073 53.1063 39.5313C53.1063 38.9553 53.2023 38.4513 53.3943 38.0193C53.5916 37.582 53.8716 37.2433 54.2343 37.0033C54.6023 36.758 55.0396 36.6353 55.5463 36.6353C56.0529 36.6353 56.4876 36.758 56.8503 37.0033C57.2129 37.2433 57.4903 37.582 57.6823 38.0193C57.8796 38.4513 57.9783 38.9553 57.9783 39.5313C57.9783 40.1073 57.8796 40.614 57.6823 41.0513C57.4903 41.4833 57.2129 41.822 56.8503 42.0673C56.4876 42.3073 56.0529 42.4273 55.5463 42.4273ZM55.5463 41.6673C55.8503 41.6673 56.1196 41.582 56.3543 41.4113C56.5943 41.2406 56.7809 40.9953 56.9143 40.6753C57.0476 40.3553 57.1143 39.974 57.1143 39.5313C57.1143 39.0886 57.0476 38.7073 56.9143 38.3873C56.7809 38.0673 56.5943 37.822 56.3543 37.6513C56.1196 37.4806 55.8503 37.3953 55.5463 37.3953C55.2369 37.3953 54.9649 37.4806 54.7303 37.6513C54.4956 37.822 54.3116 38.0673 54.1783 38.3873C54.0449 38.7073 53.9783 39.0886 53.9783 39.5313C53.9783 39.974 54.0449 40.3553 54.1783 40.6753C54.3116 40.9953 54.4956 41.2406 54.7303 41.4113C54.9649 41.582 55.2369 41.6673 55.5463 41.6673ZM58.749 42.3313V41.7233C59.1116 41.4353 59.4583 41.1446 59.789 40.8513C60.1196 40.558 60.413 40.27 60.669 39.9873C60.9303 39.6993 61.1356 39.4193 61.285 39.1473C61.4343 38.87 61.509 38.6033 61.509 38.3473C61.509 38.1766 61.4796 38.0166 61.421 37.8673C61.3623 37.7126 61.2663 37.59 61.133 37.4993C60.9996 37.4033 60.821 37.3553 60.597 37.3553C60.261 37.3553 60.0076 37.462 59.837 37.6753C59.6716 37.8886 59.5916 38.1446 59.597 38.4433H58.773C58.7783 38.0486 58.861 37.718 59.021 37.4513C59.1863 37.1846 59.405 36.982 59.677 36.8433C59.9543 36.7046 60.2663 36.6353 60.613 36.6353C61.141 36.6353 61.5623 36.7846 61.877 37.0833C62.197 37.3766 62.357 37.7873 62.357 38.3153C62.357 38.63 62.2796 38.942 62.125 39.2513C61.9756 39.5606 61.7783 39.8593 61.533 40.1473C61.293 40.43 61.0343 40.6966 60.757 40.9473C60.4796 41.198 60.2156 41.4246 59.965 41.6273H62.525V42.3313H58.749ZM65.8895 42.3313V41.2113H63.0815V40.5393L65.7535 36.7313H66.7295V40.4753H67.5135V41.2113H66.7295V42.3313H65.8895ZM64.0015 40.4753H65.9375V37.6673L64.0015 40.4753Z" fill="#99BBEB"/>
<path d="M45.5435 10.5426C45.055 6.98242 43.047 4.52046 39.688 3.11394C40.2605 2.79451 40.6305 2.63453 40.6305 2.63453C39.0125 2.03264 37.608 1.68206 36.392 1.52262C37.0315 1.01417 37.4585 0.820935 37.4585 0.820935C27.5825 -0.650006 22.7125 5.15034 22.4065 10.5505C20.4715 10.909 19 12.6846 19 14.8276C19 16.9485 20.4415 18.7104 22.348 19.0937C22.566 24.0646 27.698 28.0434 33.9995 28.0434C40.302 28.0434 45.434 24.0646 45.652 19.0937C47.558 18.7098 49 16.9474 49 14.8276C49 12.6671 47.5025 10.8794 45.5435 10.5426ZM22.4505 17.5562C21.2955 17.2394 20.439 16.1439 20.439 14.8276C20.439 13.552 21.2455 12.4845 22.347 12.1318C22.3715 13.2733 22.656 14.3646 23.154 15.3704C22.8148 16.0566 22.5776 16.7938 22.4505 17.5562ZM40.274 18.4997C40.938 19.374 41.327 20.3951 41.327 21.4907C41.327 24.7018 38.046 27.3037 33.9995 27.3037C29.953 27.3037 26.6725 24.7018 26.6725 21.4907C26.6725 20.3951 27.061 19.374 27.726 18.4997C25.4475 17.0435 23.989 14.8144 23.989 12.3123C23.989 3.37159 33.9995 9.0674 33.9995 9.0674C33.9995 9.0674 44.0105 3.37212 44.0105 12.3123C44.0105 14.8139 42.552 17.0435 40.274 18.4997ZM45.5495 17.5562C45.4222 16.7938 45.1851 16.0565 44.8465 15.3698C45.3445 14.3641 45.6285 13.2727 45.653 12.1312C46.7545 12.4845 47.5605 13.5515 47.5605 14.8271C47.5605 16.1439 46.7045 17.2394 45.5495 17.5562Z" fill="#149BFD" stroke="#149BFD"/>
<path d="M35.0726 18.9637C35.3491 18.9637 35.5726 18.4785 35.5726 17.8776C35.5726 17.2794 35.3491 16.7905 35.0726 16.7905C34.7956 16.7905 34.5726 17.2794 34.5726 17.8776C34.5726 18.4785 34.7956 18.9637 35.0726 18.9637Z" fill="#149BFD" stroke="#149BFD"/>
<path d="M32.9266 18.9637C33.2031 18.9637 33.4266 18.4785 33.4266 17.8776C33.4266 17.2794 33.2031 16.7905 32.9266 16.7905C32.6496 16.7905 32.4266 17.2794 32.4266 17.8776C32.4266 18.4785 32.6496 18.9637 32.9266 18.9637Z" fill="#149BFD" stroke="#149BFD"/>
<path d="M38.3409 16.5582C39.3074 16.5582 40.0909 15.4945 40.0909 14.1823C40.0909 12.8701 39.3074 11.8064 38.3409 11.8064C37.3744 11.8064 36.5909 12.8701 36.5909 14.1823C36.5909 15.4945 37.3744 16.5582 38.3409 16.5582Z" fill="#149BFD" stroke="#149BFD"/>
<path d="M29.6591 16.5582C30.6256 16.5582 31.4091 15.4945 31.4091 14.1823C31.4091 12.8701 30.6256 11.8064 29.6591 11.8064C28.6926 11.8064 27.9091 12.8701 27.9091 14.1823C27.9091 15.4945 28.6926 16.5582 29.6591 16.5582Z" fill="#149BFD" stroke="#149BFD"/>
<path d="M33.999 21.4116C31.6545 21.4116 29.2695 20.7405 29.0765 20.9142C28.364 21.5552 30.5485 24.5778 33.999 24.5979C37.449 24.5794 39.635 21.5557 38.921 20.9142C38.728 20.741 36.344 21.4121 33.999 21.4116Z" fill="#149BFD" stroke="#149BFD"/>
</svg>
