<svg width="32" height="29" viewBox="0 0 32 29" fill="none" xmlns="http://www.w3.org/2000/svg">
<path d="M27.5435 10.5426C27.055 6.98242 25.047 4.52046 21.688 3.11394C22.2605 2.79451 22.6305 2.63453 22.6305 2.63453C21.0125 2.03264 19.608 1.68206 18.392 1.52262C19.0315 1.01417 19.4585 0.820935 19.4585 0.820935C9.5825 -0.650006 4.7125 5.15034 4.4065 10.5505C2.4715 10.909 1 12.6846 1 14.8276C1 16.9485 2.4415 18.7104 4.348 19.0937C4.566 24.0646 9.698 28.0434 15.9995 28.0434C22.302 28.0434 27.434 24.0646 27.652 19.0937C29.558 18.7098 31 16.9474 31 14.8276C31 12.6671 29.5025 10.8794 27.5435 10.5426ZM4.4505 17.5562C3.2955 17.2394 2.439 16.1439 2.439 14.8276C2.439 13.552 3.2455 12.4845 4.347 12.1318C4.3715 13.2733 4.656 14.3646 5.154 15.3704C4.81484 16.0566 4.57757 16.7938 4.4505 17.5562ZM22.274 18.4997C22.938 19.374 23.327 20.3951 23.327 21.4907C23.327 24.7018 20.046 27.3037 15.9995 27.3037C11.953 27.3037 8.6725 24.7018 8.6725 21.4907C8.6725 20.3951 9.061 19.374 9.726 18.4997C7.4475 17.0435 5.989 14.8144 5.989 12.3123C5.989 3.37159 15.9995 9.0674 15.9995 9.0674C15.9995 9.0674 26.0105 3.37212 26.0105 12.3123C26.0105 14.8139 24.552 17.0435 22.274 18.4997ZM27.5495 17.5562C27.4222 16.7938 27.1851 16.0565 26.8465 15.3698C27.3445 14.3641 27.6285 13.2727 27.653 12.1312C28.7545 12.4845 29.5605 13.5515 29.5605 14.8271C29.5605 16.1439 28.7045 17.2394 27.5495 17.5562Z" fill="#149BFD" stroke="#149BFD"/>
<path d="M17.0726 18.9637C17.3491 18.9637 17.5726 18.4785 17.5726 17.8776C17.5726 17.2794 17.3491 16.7905 17.0726 16.7905C16.7956 16.7905 16.5726 17.2794 16.5726 17.8776C16.5726 18.4785 16.7956 18.9637 17.0726 18.9637Z" fill="#149BFD" stroke="#149BFD"/>
<path d="M14.9266 18.9637C15.2031 18.9637 15.4266 18.4785 15.4266 17.8776C15.4266 17.2794 15.2031 16.7905 14.9266 16.7905C14.6496 16.7905 14.4266 17.2794 14.4266 17.8776C14.4266 18.4785 14.6496 18.9637 14.9266 18.9637Z" fill="#149BFD" stroke="#149BFD"/>
<path d="M20.3409 16.5582C21.3074 16.5582 22.0909 15.4945 22.0909 14.1823C22.0909 12.8701 21.3074 11.8064 20.3409 11.8064C19.3744 11.8064 18.5909 12.8701 18.5909 14.1823C18.5909 15.4945 19.3744 16.5582 20.3409 16.5582Z" fill="#149BFD" stroke="#149BFD"/>
<path d="M11.6591 16.5582C12.6256 16.5582 13.4091 15.4945 13.4091 14.1823C13.4091 12.8701 12.6256 11.8064 11.6591 11.8064C10.6926 11.8064 9.90906 12.8701 9.90906 14.1823C9.90906 15.4945 10.6926 16.5582 11.6591 16.5582Z" fill="#149BFD" stroke="#149BFD"/>
<path d="M15.999 21.4116C13.6545 21.4116 11.2695 20.7405 11.0765 20.9142C10.364 21.5552 12.5485 24.5778 15.999 24.5979C19.449 24.5794 21.635 21.5557 20.921 20.9142C20.728 20.741 18.344 21.4121 15.999 21.4116Z" fill="#149BFD" stroke="#149BFD"/>
</svg>
